<svg width="511" height="114" viewBox="0 0 511 114" fill="none" xmlns="http://www.w3.org/2000/svg">
<path d="M0.32 1.92H38.08C46.72 1.92 53.1733 4.21333 57.44 8.79999C61.8133 13.3867 64 20.32 64 29.6C64 37.3867 62.8267 43.36 60.48 47.52C58.1333 51.5733 54.4533 54.24 49.44 55.52V56.16C54.9867 57.5467 58.9333 60.2133 61.28 64.16C63.7333 68.1067 64.96 74.24 64.96 82.56C64.96 92.2667 62.88 99.6267 58.72 104.64C54.56 109.547 47.68 112 38.08 112H0.32V1.92ZM32.16 46.88C34.9333 46.88 37.0133 46.56 38.4 45.92C39.8933 45.28 40.9067 44.0533 41.44 42.24C42.08 40.4267 42.4 37.7067 42.4 34.08C42.4 30.24 42.1333 27.4667 41.6 25.76C41.0667 23.9467 40.1067 22.7733 38.72 22.24C37.3333 21.6 35.1467 21.28 32.16 21.28H22.08V46.88H32.16ZM32.64 92.64C35.6267 92.64 37.8133 92.32 39.2 91.68C40.5867 91.04 41.5467 89.8133 42.08 88C42.6133 86.1867 42.88 83.3067 42.88 79.36C42.88 75.4133 42.6133 72.5333 42.08 70.72C41.5467 68.8 40.5333 67.52 39.04 66.88C37.6533 66.24 35.52 65.92 32.64 65.92H22.08V92.64H32.64ZM78.605 112V1.92H100.525V112H78.605ZM149.191 66.88V48H179.431V109.92C175.698 110.88 171.165 111.68 165.831 112.32C160.498 112.96 155.538 113.28 150.951 113.28C140.818 113.28 133.245 111.787 128.231 108.8C123.325 105.707 119.911 100.267 117.991 92.48C116.178 84.5867 115.271 72.7467 115.271 56.96C115.271 41.28 116.231 29.5467 118.151 21.76C120.178 13.8667 123.805 8.37333 129.031 5.27999C134.258 2.18666 142.098 0.639994 152.551 0.639994C156.818 0.639994 161.458 0.959993 166.471 1.59999C171.485 2.24 175.751 2.98666 179.271 3.83999V21.92C170.098 20.64 163.431 20 159.271 20C152.018 20 147.005 20.5867 144.231 21.76C141.565 22.9333 139.698 25.9733 138.631 30.88C137.671 35.68 137.191 44.3733 137.191 56.96C137.191 68.6933 137.511 77.0667 138.151 82.08C138.791 86.9867 140.018 90.2933 141.831 92C143.751 93.7067 146.951 94.56 151.431 94.56C152.391 94.56 154.951 94.4 159.111 94.08V66.88H149.191ZM223.914 1.92H253.674C264.98 1.92 273.034 3.51999 277.834 6.71999C282.74 9.81333 285.78 14.88 286.954 21.92C288.127 28.8533 288.714 40.5333 288.714 56.96C288.714 73.3867 288.127 85.12 286.954 92.16C285.78 99.0933 282.74 104.16 277.834 107.36C273.034 110.453 264.98 112 253.674 112H223.914V1.92ZM253.354 92.64C258.047 92.64 261.194 92.1067 262.794 91.04C264.5 89.8667 265.567 87.04 265.994 82.56C266.527 78.08 266.794 69.5467 266.794 56.96C266.794 44.48 266.527 36 265.994 31.52C265.46 26.9333 264.394 24.1067 262.794 23.04C261.194 21.8667 258.047 21.28 253.354 21.28H245.834V92.64H253.354ZM351.449 112L347.129 89.44H322.489L318.169 112H296.249L318.969 1.92H351.129L373.849 112H351.449ZM335.289 22.72H334.329L325.689 70.4H343.769L335.289 22.72ZM392.369 112V21.92H371.569V1.92H435.249V21.92H414.449V112H392.369ZM488.168 112L483.848 89.44H459.208L454.888 112H432.968L455.688 1.92H487.848L510.568 112H488.168ZM472.008 22.72H471.048L462.408 70.4H480.488L472.008 22.72Z" fill="#559EDD"/>
</svg>
